<svg version="1.1" id="Layer_1" xmlns="http://www.w3.org/2000/svg" xmlns:xlink="http://www.w3.org/1999/xlink" x="0px" y="0px"
	 width="100%" viewBox="0 0 200 200" enable-background="new 0 0 200 200" xml:space="preserve">
<path fill="#302C2D" opacity="1.000000" stroke="none" 
	d="
M93.000000,201.000000 
	C62.019073,201.000000 31.538143,201.000000 1.028608,201.000000 
	C1.028608,134.394104 1.028608,67.788193 1.028608,1.091139 
	C67.564110,1.091139 134.128387,1.091139 200.846329,1.091139 
	C200.846329,67.666397 200.846329,134.333160 200.846329,201.000000 
	C165.121811,201.000000 129.310898,201.000000 93.000000,201.000000 
M109.749458,148.601974 
	C123.173225,148.729095 136.597015,148.899765 150.020721,148.893082 
	C150.997849,148.892609 151.974319,147.605347 153.015137,146.037872 
	C153.044983,137.998703 153.044983,138.005829 144.933975,138.002899 
	C133.936890,137.998932 122.939484,137.939575 111.943054,138.018860 
	C110.316719,138.030594 108.694939,138.672897 107.071053,139.023483 
	C108.022926,142.004105 104.716469,145.918839 109.749458,148.601974 
M72.584106,123.016235 
	C64.215675,122.186089 60.858215,118.824303 60.773220,110.656876 
	C60.651855,98.995056 60.605637,87.328377 60.809849,75.668724 
	C60.937069,68.404572 65.248688,64.427383 72.509323,64.193054 
	C80.047623,63.949764 83.590919,67.220734 85.568817,76.367584 
	C89.124443,76.367584 92.709694,76.367584 97.683167,76.367584 
	C95.957962,71.580017 95.112007,67.100922 92.881416,63.473209 
	C87.781006,55.178154 75.368576,51.923168 64.137924,55.250423 
	C54.892612,57.989498 49.260895,65.505928 49.101978,75.873848 
	C48.933460,86.868355 49.039196,97.867409 49.061398,108.864410 
	C49.101597,128.775803 67.686768,139.766861 85.514687,130.405045 
	C93.209541,126.364311 96.442207,119.730217 96.619553,111.065819 
	C95.232628,110.961716 94.097900,110.820068 92.961281,110.802818 
	C90.489090,110.765297 88.015930,110.791229 85.629684,110.791229 
	C83.559158,120.062614 81.342216,122.226616 72.584106,123.016235 
z"/>
<path fill="#F8F7F7" opacity="1.000000" stroke="none" 
	d="
M72.997238,123.012421 
	C81.342216,122.226616 83.559158,120.062614 85.629684,110.791229 
	C88.015930,110.791229 90.489090,110.765297 92.961281,110.802818 
	C94.097900,110.820068 95.232628,110.961716 96.619553,111.065819 
	C96.442207,119.730217 93.209541,126.364311 85.514687,130.405045 
	C67.686768,139.766861 49.101597,128.775803 49.061398,108.864410 
	C49.039196,97.867409 48.933460,86.868355 49.101978,75.873848 
	C49.260895,65.505928 54.892612,57.989498 64.137924,55.250423 
	C75.368576,51.923168 87.781006,55.178154 92.881416,63.473209 
	C95.112007,67.100922 95.957962,71.580017 97.683167,76.367584 
	C92.709694,76.367584 89.124443,76.367584 85.568817,76.367584 
	C83.590919,67.220734 80.047623,63.949764 72.509323,64.193054 
	C65.248688,64.427383 60.937069,68.404572 60.809849,75.668724 
	C60.605637,87.328377 60.651855,98.995056 60.773220,110.656876 
	C60.858215,118.824303 64.215675,122.186089 72.997238,123.012421 
z"/>
<path fill="#D3E196" opacity="1.000000" stroke="none" 
	d="
M109.073593,148.152496 
	C104.716469,145.918839 108.022926,142.004105 107.071053,139.023483 
	C108.694939,138.672897 110.316719,138.030594 111.943054,138.018860 
	C122.939484,137.939575 133.936890,137.998932 144.933975,138.002899 
	C153.044983,138.005829 153.044983,137.998703 152.600311,146.656799 
	C150.597687,147.505722 149.011536,147.921997 147.421783,147.936279 
	C134.639435,148.051163 121.856407,148.090256 109.073593,148.152496 
M118.716354,146.013428 
	C128.216263,146.011383 137.718826,146.115814 147.212936,145.880035 
	C148.478851,145.848602 149.701935,144.092865 150.944855,143.135651 
	C149.797882,142.088608 148.694687,140.189392 147.497086,140.127869 
	C136.874603,139.582260 126.236290,139.321106 115.600128,139.093842 
	C114.146469,139.062790 112.313499,139.253738 111.315132,140.110138 
	C110.196114,141.070023 109.283508,142.927353 109.345757,144.347519 
	C109.380043,145.129898 111.532593,146.219650 112.852890,146.441986 
	C114.426819,146.707031 116.132202,146.191406 118.716354,146.013428 
z"/>
<path fill="#2D310E" opacity="1.000000" stroke="none" 
	d="
M109.411530,148.377243 
	C121.856407,148.090256 134.639435,148.051163 147.421783,147.936279 
	C149.011536,147.921997 150.597687,147.505722 152.568298,147.096039 
	C151.974319,147.605347 150.997849,148.892609 150.020721,148.893082 
	C136.597015,148.899765 123.173225,148.729095 109.411530,148.377243 
z"/>
<path fill="#DAF187" opacity="1.000000" stroke="none" 
	d="
M118.248497,146.013718 
	C116.132202,146.191406 114.426819,146.707031 112.852890,146.441986 
	C111.532593,146.219650 109.380043,145.129898 109.345757,144.347519 
	C109.283508,142.927353 110.196114,141.070023 111.315132,140.110138 
	C112.313499,139.253738 114.146469,139.062790 115.600128,139.093842 
	C126.236290,139.321106 136.874603,139.582260 147.497086,140.127869 
	C148.694687,140.189392 149.797882,142.088608 150.944855,143.135651 
	C149.701935,144.092865 148.478851,145.848602 147.212936,145.880035 
	C137.718826,146.115814 128.216263,146.011383 118.248497,146.013718 
z"/>
</svg>