<?xml version="1.0" standalone="no"?>
<!DOCTYPE svg PUBLIC "-//W3C//DTD SVG 20010904//EN"
 "http://www.w3.org/TR/2001/REC-SVG-20010904/DTD/svg10.dtd">
<svg version="1.0" xmlns="http://www.w3.org/2000/svg"
 width="300.000000pt" height="400.000000pt" viewBox="0 0 300.000000 400.000000"
 preserveAspectRatio="xMidYMid meet">
<metadata>
Created by potrace 1.10, written by Peter Selinger 2001-2011
</metadata>
<g transform="translate(0.000000,400.000000) scale(0.100000,-0.100000)"
fill="#000000" stroke="none">
<path d="M73 3720 c-47 -19 -43 -83 17 -261 78 -234 189 -418 350 -580 205
-206 434 -321 725 -365 55 -8 103 -20 107 -27 4 -7 8 -109 8 -228 0 -162 -3
-219 -12 -226 -7 -6 -49 -16 -93 -22 -163 -25 -277 -62 -419 -134 -338 -172
-586 -496 -694 -907 -32 -119 -32 -117 -12 -148 14 -21 20 -22 181 -22 195 0
183 -6 224 120 102 310 269 513 519 631 90 42 261 87 289 76 15 -6 17 -42 17
-397 0 -373 1 -391 19 -409 28 -28 70 -33 231 -29 135 3 143 4 161 27 18 22
19 44 19 401 0 208 3 385 6 394 8 22 44 20 150 -8 106 -29 181 -60 255 -108
185 -119 316 -297 403 -546 19 -56 40 -111 46 -122 17 -32 75 -42 217 -38 114
3 134 6 153 23 19 17 21 26 15 69 -3 28 -24 104 -46 170 -170 509 -572 867
-1071 952 -57 9 -109 22 -115 27 -18 14 -18 440 0 455 6 6 50 15 97 22 426 58
812 356 1015 783 58 121 97 231 117 328 l12 61 -28 25 c-28 24 -31 24 -182 21
-180 -4 -179 -3 -214 -113 -130 -399 -373 -637 -724 -710 -60 -12 -82 -13 -92
-4 -12 9 -14 80 -14 399 l0 389 -26 20 c-25 19 -40 21 -189 21 -145 0 -165 -2
-186 -19 l-24 -19 -5 -399 -5 -398 -48 3 c-115 7 -285 74 -403 158 -164 116
-321 358 -383 591 -20 74 -42 83 -205 82 -77 0 -151 -4 -163 -9z m346 -127
c95 -307 284 -542 524 -653 77 -36 220 -77 310 -88 l67 -9 0 424 0 423 178 0
177 0 -3 -426 c-2 -404 -2 -425 15 -421 10 3 41 8 68 12 205 26 404 125 546
272 127 131 210 274 271 466 l31 97 164 0 165 0 -7 -32 c-15 -69 -79 -257
-115 -333 -161 -347 -447 -614 -776 -724 -100 -34 -242 -61 -315 -61 l-49 0 2
-277 3 -278 82 -7 c468 -39 898 -377 1086 -853 31 -77 87 -263 87 -287 0 -5
-74 -8 -165 -8 l-164 0 -10 38 c-6 20 -11 41 -11 45 0 5 -18 55 -40 112 -44
112 -125 248 -198 334 -140 164 -376 284 -620 315 l-52 7 0 -423 1 -423 -176
-3 -175 -2 0 425 0 426 -52 -7 c-415 -52 -712 -313 -850 -746 l-31 -98 -163 0
-162 0 28 108 c128 487 436 839 855 980 88 30 254 62 319 62 l56 0 0 279 0
278 -81 7 c-389 32 -730 240 -949 576 -85 132 -165 324 -210 502 l-17 68 163
0 162 0 31 -97z"/>
</g>
</svg>
