<svg version="1.1" id="Layer_1" xmlns="http://www.w3.org/2000/svg" xmlns:xlink="http://www.w3.org/1999/xlink" x="0px" y="0px"
	 width="100%" viewBox="0 0 225 225" enable-background="new 0 0 225 225" xml:space="preserve">
<path fill="#FEFEFF" opacity="1.000000" stroke="none" 
	d="
M226.000000,117.000000 
	C226.000000,153.297577 226.000000,189.595169 226.000000,225.892761 
	C225.869247,225.928513 225.738495,225.995605 225.607742,225.995605 
	C150.848038,226.000061 76.088341,226.000000 1.000000,226.000000 
	C1.000000,189.313095 1.000000,152.625198 1.294411,115.656281 
	C3.182811,117.359276 4.412667,119.903496 6.439799,121.221161 
	C12.270006,125.010895 15.157592,129.977524 15.090360,136.998367 
	C15.028229,143.486572 15.519365,149.980865 15.793777,156.471344 
	C16.298651,168.412766 25.728642,176.408707 37.666134,174.942032 
	C41.881634,174.424103 44.874359,172.521332 45.016674,167.708023 
	C45.159531,162.876511 43.196888,159.878601 38.352757,159.450119 
	C33.628876,159.032303 32.443710,156.065353 32.111538,152.396027 
	C31.736929,148.257919 31.924938,144.071899 31.767866,139.910507 
	C31.381151,129.665176 30.537655,119.588074 19.995228,113.434975 
	C28.064482,108.685829 30.825176,101.674988 31.208174,93.397232 
	C31.462141,87.908127 31.839750,82.422844 31.987185,76.931168 
	C32.176476,69.880394 32.636627,68.954811 39.391411,67.261047 
	C43.869568,66.138161 45.089565,63.211643 45.017853,59.135601 
	C44.942364,54.844868 42.333630,52.569565 38.528664,52.212105 
	C25.157045,50.955910 16.124746,58.213440 15.779988,70.758690 
	C15.592378,77.585602 15.213735,84.408020 15.084055,91.235550 
	C14.974236,97.017464 12.560481,101.269875 7.852587,104.688911 
	C5.198400,106.616478 3.260543,109.530403 1.000002,112.000000 
	C1.000000,75.036324 1.000000,38.072639 1.000000,1.054480 
	C75.890022,1.054480 150.780090,1.054480 226.000000,1.054480 
	C226.000000,37.353561 226.000000,73.708122 225.691315,110.376663 
	C224.075912,109.065010 223.090866,106.880249 221.406433,105.911217 
	C214.377518,101.867599 211.897141,95.805061 211.955429,87.995598 
	C212.007446,81.025627 212.119827,73.933350 210.969482,67.103226 
	C208.710327,53.689510 196.844345,51.218143 187.158829,52.680279 
	C183.434372,53.242527 182.064423,56.318264 182.180511,59.747746 
	C182.298813,63.242580 183.417267,66.610359 187.538635,67.049164 
	C193.426529,67.676048 195.392838,70.921585 195.239563,76.475571 
	C195.111282,81.123283 195.595383,85.784996 195.709717,90.442932 
	C195.939514,99.804031 198.259491,108.150208 207.297821,113.588562 
	C198.607727,118.692299 195.978745,126.390091 195.843719,135.404404 
	C195.768967,140.394012 195.205872,145.380936 195.242416,150.366287 
	C195.280380,155.545166 193.804260,159.022308 187.996735,159.659805 
	C183.403076,160.164032 182.167709,163.750000 182.189514,167.656647 
	C182.212173,171.709793 184.738266,173.977203 188.590363,174.814362 
	C198.945358,177.064819 209.615173,170.085205 211.021637,159.469635 
	C211.956543,152.413284 211.901871,145.205475 211.982407,138.061981 
	C212.063416,130.877151 214.350433,125.140442 220.877213,121.408524 
	C222.797302,120.310631 224.303909,118.489616 226.000000,117.000000 
M143.974075,110.991264 
	C143.974075,110.991264 143.942154,111.033249 143.460953,111.086052 
	C143.665451,111.404457 143.869949,111.722870 144.489410,112.254906 
	C144.743301,112.453529 144.916580,112.707230 144.842010,113.639862 
	C153.738708,114.147621 162.635406,114.655380 171.221832,115.145439 
	C171.221832,104.940292 171.221832,96.035316 170.720947,86.876251 
	C170.485062,86.592682 170.249161,86.309120 170.294037,85.336586 
	C170.449677,85.143517 170.605316,84.950447 171.036804,84.296432 
	C170.720596,83.517342 170.404373,82.738251 169.574310,81.620911 
	C169.099121,81.233360 168.623932,80.845810 167.901840,79.877945 
	C160.093582,72.128021 152.285324,64.378098 144.088257,56.283775 
	C143.864288,56.542320 143.640305,56.800869 143.294159,57.979904 
	C143.342392,65.965263 143.390625,73.950623 143.217819,82.322983 
	C143.217819,82.322983 143.235504,82.768219 143.156677,83.362259 
	C143.324265,83.903572 143.491852,84.444885 143.697998,85.529396 
	C143.756683,85.701164 143.815384,85.872932 143.635849,86.951630 
	C143.717255,94.625687 143.798676,102.299736 143.773407,110.517792 
	C143.835922,110.691719 143.898422,110.865654 143.974075,110.991264 
M114.165604,84.582298 
	C114.459587,84.703407 114.753571,84.824509 115.350700,85.726692 
	C115.226204,86.165253 115.101707,86.603806 114.327736,87.030975 
	C113.922737,87.836487 113.181534,88.635925 113.166832,89.448494 
	C113.064568,95.100021 113.017494,100.756638 113.157295,106.406563 
	C113.218582,108.883499 113.759895,111.348549 114.992836,114.439804 
	C114.691269,115.017082 114.389702,115.594360 113.297043,116.484886 
	C113.238174,124.507339 113.139709,132.530045 113.188919,140.551819 
	C113.193283,141.261856 114.160858,141.965988 115.237335,143.093964 
	C115.430573,143.223160 115.623810,143.352371 116.087708,143.892319 
	C124.972794,143.892319 133.857880,143.892319 143.014145,143.892319 
	C143.014145,138.003433 143.121628,132.531616 142.974319,127.066673 
	C142.884232,123.724220 142.402817,120.392311 141.407501,116.601952 
	C140.953613,116.296043 140.499710,115.990143 139.813370,115.052536 
	C139.732986,114.091957 139.652588,113.131371 140.427002,112.016479 
	C140.711334,111.961807 140.995667,111.907135 141.702072,111.175262 
	C141.714066,102.277443 141.726044,93.379623 141.849197,83.636612 
	C141.852173,83.352478 141.855164,83.068336 141.799866,82.325195 
	C141.799866,82.325195 141.552216,81.933914 141.687866,81.016335 
	C141.642456,73.032104 141.597046,65.047867 141.709808,56.590755 
	C141.316879,56.598236 140.923935,56.605717 139.973251,56.958580 
	C132.268478,64.783669 124.563713,72.608749 116.317337,80.774727 
	C115.816109,81.165764 115.314880,81.556793 114.319115,82.307388 
	C114.230865,82.899963 114.142609,83.492538 114.165604,84.582298 
M109.789040,82.473053 
	C109.609863,82.193321 109.355392,82.033379 108.758736,81.379311 
	C100.509377,73.239868 92.260017,65.100426 83.527702,56.377808 
	C83.357529,65.239517 83.187355,74.101219 82.992104,83.630875 
	C82.989586,84.076416 82.987068,84.521965 82.801315,85.893890 
	C82.801315,94.417145 82.801315,102.940399 82.801315,110.379128 
	C91.696152,102.045456 100.762161,93.551399 110.334831,84.754272 
	C110.149666,84.148216 109.964500,83.542160 109.789040,82.473053 
M80.989914,81.951508 
	C80.989914,73.426323 80.989914,64.901131 80.989914,55.418045 
	C79.783363,56.770191 79.277084,57.337563 78.156403,58.143990 
	C70.742340,65.688667 63.328281,73.233353 55.355652,81.041908 
	C54.915363,81.691574 54.475079,82.341232 53.500801,83.335365 
	C53.701225,84.208107 53.901649,85.080849 54.566544,86.148422 
	C54.755116,86.421486 54.943691,86.694557 54.478523,87.015060 
	C53.988148,87.349075 53.497772,87.683090 53.001919,88.952049 
	C53.001919,95.111153 52.911007,101.272263 53.046467,107.428391 
	C53.100975,109.905540 53.651863,112.371758 54.907654,114.983673 
	C63.154732,114.983673 71.401810,114.983673 79.627014,114.983673 
	C79.929169,113.924950 80.210243,112.940094 80.932701,111.117943 
	C80.933533,102.451073 80.934364,93.784203 80.968773,84.368469 
	C80.954796,83.868988 80.940819,83.369499 80.989914,81.951508 
M84.359993,116.176575 
	C83.920044,116.444496 83.480095,116.712418 82.214256,117.297951 
	C82.151154,124.391022 82.019623,131.484604 82.072647,138.576813 
	C82.086044,140.368622 82.688805,142.156006 83.944374,144.098328 
	C89.095276,144.107056 94.258217,144.334885 99.393135,144.052689 
	C103.253365,143.840576 107.077614,142.973694 111.548790,142.823196 
	C111.442291,133.943817 111.335793,125.064445 110.708900,115.455521 
	C110.891747,114.916084 111.074593,114.376648 111.832481,113.098824 
	C111.832481,104.553932 111.832481,96.009041 111.832481,87.511620 
	C103.412750,95.661057 95.145050,103.663345 86.185684,112.085152 
	C85.739525,113.392883 85.293365,114.700623 84.359993,116.176575 
M80.562279,119.329796 
	C80.499733,118.908897 80.437187,118.488007 80.526947,117.453270 
	C80.409119,117.278465 80.291290,117.103653 79.777916,116.346695 
	C71.557281,116.320786 63.336643,116.294876 54.528671,116.055817 
	C54.600899,116.783867 54.673122,117.511925 55.118568,118.792686 
	C62.664440,126.247368 70.210312,133.702057 78.036049,141.763885 
	C78.748848,142.309814 79.461655,142.855759 80.367043,143.549210 
	C80.367043,135.383331 80.367043,127.664230 80.562279,119.329796 
M117.161705,170.903290 
	C125.031754,162.945297 132.901810,154.987305 140.771866,147.029312 
	C140.655914,146.650284 140.539948,146.271271 140.423996,145.892258 
	C131.678467,146.288254 122.932930,146.684265 113.940849,147.977814 
	C113.940849,156.318436 113.940849,164.659073 113.940849,174.030243 
	C115.327713,172.512360 115.954552,171.826309 117.161705,170.903290 
M167.826401,116.157707 
	C160.072311,116.157707 152.318207,116.157707 144.505844,116.157707 
	C144.505844,125.630730 144.505844,134.435043 144.505844,141.823380 
	C152.845673,133.556320 161.709732,124.769592 170.398514,116.156624 
	C170.223602,116.156624 169.432358,116.156624 167.826401,116.157707 
M92.370110,155.129700 
	C98.519302,161.284409 104.668488,167.439133 111.344292,174.120941 
	C111.344292,164.253387 111.344292,155.516022 111.344292,146.640991 
	C102.271179,146.640991 93.493813,146.640991 84.716446,146.640991 
	C84.498596,146.987061 84.280746,147.333130 84.062889,147.679199 
	C86.665436,149.995850 89.267975,152.312515 92.370110,155.129700 
z"/>
<path fill="#6426DC" opacity="1.000000" stroke="none" 
	d="
M226.000000,116.571541 
	C224.303909,118.489616 222.797302,120.310631 220.877213,121.408524 
	C214.350433,125.140442 212.063416,130.877151 211.982407,138.061981 
	C211.901871,145.205475 211.956543,152.413284 211.021637,159.469635 
	C209.615173,170.085205 198.945358,177.064819 188.590363,174.814362 
	C184.738266,173.977203 182.212173,171.709793 182.189514,167.656647 
	C182.167709,163.750000 183.403076,160.164032 187.996735,159.659805 
	C193.804260,159.022308 195.280380,155.545166 195.242416,150.366287 
	C195.205872,145.380936 195.768967,140.394012 195.843719,135.404404 
	C195.978745,126.390091 198.607727,118.692299 207.297821,113.588562 
	C198.259491,108.150208 195.939514,99.804031 195.709717,90.442932 
	C195.595383,85.784996 195.111282,81.123283 195.239563,76.475571 
	C195.392838,70.921585 193.426529,67.676048 187.538635,67.049164 
	C183.417267,66.610359 182.298813,63.242580 182.180511,59.747746 
	C182.064423,56.318264 183.434372,53.242527 187.158829,52.680279 
	C196.844345,51.218143 208.710327,53.689510 210.969482,67.103226 
	C212.119827,73.933350 212.007446,81.025627 211.955429,87.995598 
	C211.897141,95.805061 214.377518,101.867599 221.406433,105.911217 
	C223.090866,106.880249 224.075912,109.065010 225.691315,110.845322 
	C226.000000,112.714355 226.000000,114.428719 226.000000,116.571541 
z"/>
<path fill="#6425DC" opacity="1.000000" stroke="none" 
	d="
M1.000002,112.375000 
	C3.260543,109.530403 5.198400,106.616478 7.852587,104.688911 
	C12.560481,101.269875 14.974236,97.017464 15.084055,91.235550 
	C15.213735,84.408020 15.592378,77.585602 15.779988,70.758690 
	C16.124746,58.213440 25.157045,50.955910 38.528664,52.212105 
	C42.333630,52.569565 44.942364,54.844868 45.017853,59.135601 
	C45.089565,63.211643 43.869568,66.138161 39.391411,67.261047 
	C32.636627,68.954811 32.176476,69.880394 31.987185,76.931168 
	C31.839750,82.422844 31.462141,87.908127 31.208174,93.397232 
	C30.825176,101.674988 28.064482,108.685829 19.995228,113.434975 
	C30.537655,119.588074 31.381151,129.665176 31.767866,139.910507 
	C31.924938,144.071899 31.736929,148.257919 32.111538,152.396027 
	C32.443710,156.065353 33.628876,159.032303 38.352757,159.450119 
	C43.196888,159.878601 45.159531,162.876511 45.016674,167.708023 
	C44.874359,172.521332 41.881634,174.424103 37.666134,174.942032 
	C25.728642,176.408707 16.298651,168.412766 15.793777,156.471344 
	C15.519365,149.980865 15.028229,143.486572 15.090360,136.998367 
	C15.157592,129.977524 12.270006,125.010895 6.439799,121.221161 
	C4.412667,119.903496 3.182811,117.359276 1.294411,115.187622 
	C1.000000,114.250000 1.000000,113.500000 1.000002,112.375000 
z"/>
<path fill="#692BDD" opacity="1.000000" stroke="none" 
	d="
M171.221832,87.130333 
	C171.221832,96.035316 171.221832,104.940292 171.221832,115.145439 
	C162.635406,114.655380 153.738708,114.147621 145.234451,113.199593 
	C154.158539,104.216324 162.690186,95.673332 171.221832,87.130333 
z"/>
<path fill="#692BDD" opacity="1.000000" stroke="none" 
	d="
M168.233765,116.157166 
	C169.432358,116.156624 170.223602,116.156624 170.398514,116.156624 
	C161.709732,124.769592 152.845673,133.556320 144.505844,141.823380 
	C144.505844,134.435043 144.505844,125.630730 144.505844,116.157707 
	C152.318207,116.157707 160.072311,116.157707 168.233765,116.157166 
z"/>
<path fill="#692DDD" opacity="1.000000" stroke="none" 
	d="
M92.120316,154.879425 
	C89.267975,152.312515 86.665436,149.995850 84.062889,147.679199 
	C84.280746,147.333130 84.498596,146.987061 84.716446,146.640991 
	C93.493813,146.640991 102.271179,146.640991 111.344292,146.640991 
	C111.344292,155.516022 111.344292,164.253387 111.344292,174.120941 
	C104.668488,167.439133 98.519302,161.284409 92.120316,154.879425 
z"/>
<path fill="#6221DC" opacity="1.000000" stroke="none" 
	d="
M109.828178,85.057343 
	C100.762161,93.551399 91.696152,102.045456 82.801315,110.379128 
	C82.801315,102.940399 82.801315,94.417145 83.362282,85.410759 
	C92.558228,84.970863 101.193199,85.014099 109.828178,85.057343 
z"/>
<path fill="#672ADD" opacity="1.000000" stroke="none" 
	d="
M114.083244,113.819000 
	C113.759895,111.348549 113.218582,108.883499 113.157295,106.406563 
	C113.017494,100.756638 113.064568,95.100021 113.166832,89.448494 
	C113.181534,88.635925 113.922737,87.836487 114.635818,87.018112 
	C114.943901,87.005257 114.961525,86.958122 114.983139,87.262329 
	C115.350494,87.723557 115.696251,87.880569 116.005600,88.034081 
	C115.969185,88.030586 115.962570,87.957733 115.980087,88.263550 
	C116.345810,88.725365 116.694016,88.881363 117.008018,89.034866 
	C116.973808,89.032364 116.965813,88.964233 116.975845,89.268127 
	C117.291397,89.830116 117.596924,90.088211 118.003265,90.586639 
	C118.414650,90.885536 118.725220,90.944099 119.011887,91.006363 
	C118.987991,91.010056 118.984566,90.961815 118.978302,91.274048 
	C119.327408,91.729324 119.682785,91.872375 120.011627,92.015152 
	C119.985085,92.014885 119.984573,91.961815 119.978287,92.274055 
	C120.327393,92.729340 120.682777,92.872375 121.011627,93.015152 
	C120.985085,93.014893 120.984573,92.961815 120.978287,93.274055 
	C121.327393,93.729332 121.682777,93.872375 122.011612,94.015182 
	C121.985054,94.014938 121.984467,93.961830 121.979019,94.273605 
	C122.328430,94.728767 122.683289,94.872154 123.011574,95.015244 
	C122.985008,95.014961 122.984467,94.961830 122.979019,95.273605 
	C123.328430,95.728767 123.683289,95.872154 124.011574,96.015244 
	C123.985008,96.014961 123.984467,95.961830 123.979019,96.273605 
	C124.328430,96.728775 124.683281,96.872154 125.011574,97.015244 
	C124.985008,97.014961 124.984467,96.961830 124.979019,97.273605 
	C125.328430,97.728767 125.683289,97.872154 126.011559,98.015244 
	C125.984978,98.014954 125.984444,97.961784 125.979004,98.273575 
	C126.328445,98.728767 126.683319,98.872162 127.011612,99.015274 
	C126.985023,99.014999 126.984467,98.961830 126.979019,99.273605 
	C127.328438,99.728767 127.683289,99.872154 128.011566,100.015244 
	C127.984978,100.014954 127.984444,99.961784 127.979012,100.273582 
	C128.328445,100.728767 128.683319,100.872162 129.011597,101.015274 
	C128.985016,101.014999 128.984467,100.961830 128.979004,101.273636 
	C129.328415,101.728783 129.683289,101.872131 130.011581,102.015228 
	C129.985016,102.014961 129.984497,101.961838 129.978943,102.273705 
	C130.328308,102.728859 130.683228,102.872147 131.011597,103.015175 
	C130.985062,103.014915 130.984558,102.961838 130.978851,103.273766 
	C131.328156,103.728920 131.683136,103.872154 132.011612,104.015137 
	C131.985092,104.014885 131.984634,103.961853 131.978607,104.275383 
	C132.327713,104.730194 132.682861,104.871468 133.012390,105.012962 
	C132.986771,105.013184 132.987274,104.961952 132.974823,105.276932 
	C133.320923,105.732162 133.679489,105.872414 134.012451,106.012924 
	C133.986847,106.013184 133.987350,105.961998 133.974762,106.277023 
	C134.320770,106.732224 134.679367,106.872406 135.012405,107.012848 
	C134.986832,107.013107 134.987396,106.961960 134.974655,107.277054 
	C135.320618,107.732300 135.679321,107.872437 136.012451,108.012856 
	C135.986893,108.013130 135.987427,107.962006 135.974609,108.277115 
	C136.320511,108.732346 136.679260,108.872475 137.012390,109.012871 
	C136.986801,109.013138 136.987366,108.961952 136.974579,109.277069 
	C137.320557,109.732384 137.679306,109.872574 138.013840,110.012520 
	C137.989609,110.012268 137.993393,109.963951 137.951523,110.259399 
	C138.219711,111.056221 138.529755,111.557602 138.469849,112.230019 
	C134.985199,112.597099 131.871201,112.804268 128.755722,112.986626 
	C123.865410,113.272873 118.974121,113.542397 114.083244,113.819000 
z"/>
<path fill="#6A2EDD" opacity="1.000000" stroke="none" 
	d="
M114.187393,147.080261 
	C122.932930,146.684265 131.678467,146.288254 140.423996,145.892258 
	C140.539948,146.271271 140.655914,146.650284 140.771866,147.029312 
	C132.901810,154.987305 125.031754,162.945297 116.477707,170.800201 
	C115.534225,167.326660 115.248291,163.958008 115.021744,160.585358 
	C114.719475,156.085281 114.463341,151.582108 114.187393,147.080261 
z"/>
<path fill="#6221DC" opacity="1.000000" stroke="none" 
	d="
M114.960556,87.023804 
	C115.101707,86.603806 115.226204,86.165253 115.273804,85.202415 
	C115.196907,84.678139 115.180283,84.372063 115.635513,84.340668 
	C124.385452,84.377510 132.680161,84.445747 140.750763,84.830025 
	C140.327103,93.526901 140.127579,101.907738 139.588867,110.082802 
	C138.830917,109.906006 138.412155,109.934975 137.993393,109.963943 
	C137.993393,109.963951 137.989609,110.012268 138.159271,109.630692 
	C137.881760,109.153404 137.434555,109.057678 136.987366,108.961952 
	C136.987366,108.961952 136.986801,109.013138 137.161591,108.629517 
	C136.886734,108.151268 136.437088,108.056633 135.987427,107.962006 
	C135.987427,107.962006 135.986893,108.013130 136.158401,107.630974 
	C135.882401,107.153198 135.434906,107.057579 134.987396,106.961960 
	C134.987396,106.961960 134.986832,107.013107 135.161758,106.629463 
	C134.886902,106.151207 134.437134,106.056602 133.987350,105.961998 
	C133.987350,105.961998 133.986847,106.013184 134.158417,105.631004 
	C133.882401,105.153198 133.434845,105.057571 132.987274,104.961952 
	C132.987274,104.961952 132.986771,105.013184 133.161011,104.628716 
	C132.885040,104.150116 132.434830,104.055984 131.984634,103.961853 
	C131.984634,103.961853 131.985092,104.014885 132.161270,103.630722 
	C131.886490,103.151642 131.435516,103.056740 130.984558,102.961838 
	C130.984558,102.961838 130.985062,103.014915 131.161255,102.630737 
	C130.886459,102.151657 130.435486,102.056747 129.984497,101.961838 
	C129.984497,101.961838 129.985016,102.014961 130.161255,101.630768 
	C129.886475,101.151665 129.435471,101.056740 128.984467,100.961823 
	C128.984467,100.961830 128.985016,101.014999 129.157883,100.632309 
	C128.881989,100.153679 128.433212,100.057732 127.984444,99.961784 
	C127.984444,99.961784 127.984978,100.014954 128.161209,99.630806 
	C127.886452,99.151718 127.435463,99.056778 126.984467,98.961830 
	C126.984467,98.961830 126.985023,99.014999 127.157883,98.632309 
	C126.881973,98.153679 126.433212,98.057732 125.984444,97.961784 
	C125.984444,97.961784 125.984978,98.014954 126.161247,97.630791 
	C125.886497,97.151695 125.435486,97.056763 124.984467,96.961830 
	C124.984467,96.961830 124.985008,97.014961 125.161263,96.630798 
	C124.886497,96.151695 124.435486,96.056763 123.984467,95.961830 
	C123.984467,95.961830 123.985008,96.014961 124.161270,95.630798 
	C123.886513,95.151695 123.435486,95.056763 122.984467,94.961830 
	C122.984467,94.961830 122.985008,95.014961 123.161270,94.630798 
	C122.886513,94.151695 122.435486,94.056763 121.984467,93.961830 
	C121.984467,93.961830 121.985054,94.014938 122.161285,93.630760 
	C121.886528,93.151657 121.435555,93.056740 120.984573,92.961815 
	C120.984573,92.961815 120.985085,93.014893 121.161301,92.630737 
	C120.886528,92.151657 120.435555,92.056740 119.984573,91.961815 
	C119.984573,91.961815 119.985085,92.014885 120.161293,91.630737 
	C119.886520,91.151665 119.435547,91.056740 118.984566,90.961815 
	C118.984566,90.961815 118.987991,91.010056 119.271500,90.733322 
	C119.041107,89.947701 118.527206,89.438820 117.744598,88.729797 
	C117.305870,88.674500 117.135841,88.819366 116.965813,88.964233 
	C116.965813,88.964233 116.973808,89.032364 117.149590,88.646149 
	C116.871101,88.159203 116.416840,88.058464 115.962570,87.957733 
	C115.962570,87.957733 115.969185,88.030586 116.151566,87.643005 
	C115.876465,87.156326 115.418999,87.057228 114.961525,86.958122 
	C114.961525,86.958122 114.943901,87.005257 114.960556,87.023804 
z"/>
<path fill="#6729DD" opacity="1.000000" stroke="none" 
	d="
M143.438873,81.935982 
	C143.390625,73.950623 143.342392,65.965263 143.634933,57.447586 
	C144.142822,56.819576 144.309937,56.723877 144.477066,56.628174 
	C152.285324,64.378098 160.093582,72.128021 167.797577,80.557129 
	C159.858704,81.499565 152.024124,81.762817 144.003494,81.989952 
	C143.817459,81.953835 143.438858,81.935982 143.438873,81.935982 
z"/>
<path fill="#6729DD" opacity="1.000000" stroke="none" 
	d="
M141.551651,57.063637 
	C141.597046,65.047867 141.642456,73.032104 141.433990,81.485580 
	C141.180099,81.954826 140.814117,82.026230 140.357300,82.012848 
	C133.812164,81.997375 127.720726,82.101173 121.637634,81.921860 
	C120.031509,81.874512 118.451134,80.953613 116.858948,80.433838 
	C124.563713,72.608749 132.268478,64.783669 140.491211,56.937050 
	C141.190002,56.964893 141.370819,57.014263 141.551651,57.063637 
z"/>
<path fill="#6221DC" opacity="1.000000" stroke="none" 
	d="
M80.491318,111.955231 
	C80.210243,112.940094 79.929169,113.924950 79.627014,114.983673 
	C71.401810,114.983673 63.154732,114.983673 54.450134,114.455070 
	C53.994175,107.527908 53.902939,101.127052 54.061382,94.732376 
	C54.101883,93.097710 54.932461,91.482628 55.685387,90.008759 
	C62.999077,97.175484 69.987656,104.232994 77.115868,111.146538 
	C77.847336,111.855980 79.413963,111.704323 80.567963,111.961594 
	C80.542870,111.970955 80.491325,111.955231 80.491318,111.955231 
z"/>
<path fill="#6221DC" opacity="1.000000" stroke="none" 
	d="
M55.116013,116.268959 
	C63.336643,116.294876 71.557281,116.320786 79.815567,116.688095 
	C80.027023,117.375374 80.200829,117.721245 80.374634,118.067108 
	C80.437187,118.488007 80.499733,118.908897 80.143356,119.822601 
	C79.494850,124.749245 79.366104,129.191498 78.996758,133.613663 
	C78.785339,136.144897 78.182686,138.643463 77.756180,141.156738 
	C70.210312,133.702057 62.664440,126.247368 54.927795,118.178589 
	C54.863354,117.132652 54.989681,116.700806 55.116013,116.268959 
z"/>
<path fill="#6628DD" opacity="1.000000" stroke="none" 
	d="
M114.681076,142.672852 
	C114.160858,141.965988 113.193283,141.261856 113.188919,140.551819 
	C113.139709,132.530045 113.238174,124.507339 113.999031,116.597794 
	C120.905128,116.808678 127.113190,116.811470 133.310638,117.069382 
	C134.925507,117.136574 136.507294,117.999191 137.958893,118.772087 
	C130.102722,126.922745 122.391891,134.797806 114.681076,142.672852 
z"/>
<path fill="#6323DC" opacity="1.000000" stroke="none" 
	d="
M86.877350,111.665649 
	C95.145050,103.663345 103.412750,95.661057 111.832481,87.511620 
	C111.832481,96.009041 111.832481,104.553932 111.243904,113.257904 
	C104.385216,113.278183 98.111366,113.223366 91.847488,112.944565 
	C90.175110,112.870132 88.533234,112.110634 86.877350,111.665649 
z"/>
<path fill="#6628DD" opacity="1.000000" stroke="none" 
	d="
M170.760971,84.757370 
	C170.605316,84.950447 170.449677,85.143517 169.845795,85.808990 
	C161.347198,94.210304 153.296860,102.139198 144.905426,110.037216 
	C144.336258,109.995499 144.108170,109.984650 143.880096,109.973793 
	C143.798676,102.299736 143.717255,94.625687 144.016113,86.371483 
	C144.622971,85.482643 144.849579,85.173958 145.534821,84.785423 
	C154.249298,84.722839 162.505142,84.740105 170.760971,84.757370 
z"/>
<path fill="#6120DC" opacity="1.000000" stroke="none" 
	d="
M111.229294,116.185066 
	C111.335793,125.064445 111.442291,133.943817 111.146042,142.266968 
	C102.989761,133.698181 95.236229,125.685600 86.827454,116.995895 
	C89.994949,116.995895 91.986473,117.063789 93.971939,116.983040 
	C99.725693,116.749039 105.477020,116.455345 111.229294,116.185066 
z"/>
<path fill="#6120DC" opacity="1.000000" stroke="none" 
	d="
M83.020737,143.945435 
	C82.688805,142.156006 82.086044,140.368622 82.072647,138.576813 
	C82.019623,131.484604 82.151154,124.391022 82.642349,117.338852 
	C83.070442,117.379753 83.073158,117.780312 83.173920,118.106522 
	C91.027008,126.383156 98.779327,134.333572 107.233978,143.004272 
	C103.210556,143.004272 100.409203,142.897034 97.619034,143.027985 
	C92.749306,143.256546 87.886467,143.631714 83.020737,143.945435 
z"/>
<path fill="#6426DC" opacity="1.000000" stroke="none" 
	d="
M84.010651,56.960983 
	C92.260017,65.100426 100.509377,73.239868 108.421707,81.691528 
	C101.298454,82.001167 94.510536,81.909653 87.726837,82.039108 
	C84.955795,82.091988 83.906509,81.123482 83.959816,78.311874 
	C84.094704,71.197144 84.008377,64.078224 84.010651,56.960983 
z"/>
<path fill="#6221DC" opacity="1.000000" stroke="none" 
	d="
M55.914219,80.778030 
	C63.328281,73.233353 70.742340,65.688667 78.802956,58.292267 
	C79.633919,62.547672 79.950455,66.653946 79.977371,70.762108 
	C80.051018,82.002434 80.001038,82.114685 68.903999,81.946701 
	C64.569168,81.881088 60.243862,81.186272 55.914219,80.778030 
z"/>
<path fill="#5600DA" opacity="1.000000" stroke="none" 
	d="
M83.482559,144.021881 
	C87.886467,143.631714 92.749306,143.256546 97.619034,143.027985 
	C100.409203,142.897034 103.210556,143.004272 107.233978,143.004272 
	C98.779327,134.333572 91.027008,126.383156 83.495895,118.155670 
	C84.093803,117.255188 84.470505,116.631767 84.847206,116.008354 
	C85.293365,114.700623 85.739525,113.392883 86.531525,111.875404 
	C88.533234,112.110634 90.175110,112.870132 91.847488,112.944565 
	C98.111366,113.223366 104.385216,113.278183 110.956390,113.627098 
	C111.074593,114.376648 110.891747,114.916084 110.969101,115.820297 
	C105.477020,116.455345 99.725693,116.749039 93.971939,116.983040 
	C91.986473,117.063789 89.994949,116.995895 86.827454,116.995895 
	C95.236229,125.685600 102.989761,133.698181 110.830597,142.054520 
	C107.077614,142.973694 103.253365,143.840576 99.393135,144.052689 
	C94.258217,144.334885 89.095276,144.107056 83.482559,144.021881 
z"/>
<path fill="#5600DA" opacity="1.000000" stroke="none" 
	d="
M138.104263,118.496475 
	C136.507294,117.999191 134.925507,117.136574 133.310638,117.069382 
	C127.113190,116.811470 120.905128,116.808678 114.394577,116.441170 
	C114.389702,115.594360 114.691269,115.017082 114.538040,114.129395 
	C118.974121,113.542397 123.865410,113.272873 128.755722,112.986626 
	C131.871201,112.804268 134.985199,112.597099 138.649384,112.281250 
	C139.198883,112.161446 139.572189,112.170792 139.572189,112.170792 
	C139.652588,113.131371 139.732986,114.091957 139.884888,115.640640 
	C139.339035,116.984650 138.721649,117.740562 138.104263,118.496475 
z"/>
<path fill="#E5DEF8" opacity="1.000000" stroke="none" 
	d="
M137.958893,118.772095 
	C138.721649,117.740562 139.339035,116.984650 140.001129,115.956482 
	C140.499710,115.990143 140.953613,116.296043 141.668823,117.102753 
	C141.602478,118.062965 141.274826,118.522377 140.637329,119.103615 
	C132.518539,127.133453 124.709579,135.041458 116.704849,143.003265 
	C116.286842,143.212311 116.056168,143.353821 115.817047,143.481583 
	C115.623810,143.352371 115.430573,143.223160 114.959206,142.883408 
	C122.391891,134.797806 130.102722,126.922745 137.958893,118.772095 
z"/>
<path fill="#EEE9FB" opacity="1.000000" stroke="none" 
	d="
M145.246536,110.068100 
	C153.296860,102.139198 161.347198,94.210304 169.705414,86.153473 
	C170.249161,86.309120 170.485062,86.592682 170.971390,87.003296 
	C162.690186,95.673332 154.158539,104.216324 145.318054,112.887665 
	C144.916580,112.707230 144.743301,112.453529 144.270477,111.893066 
	C144.015076,111.365227 143.978607,111.199242 143.942154,111.033249 
	C143.942154,111.033249 143.974075,110.991264 144.254883,110.977951 
	C144.772629,110.665802 145.009583,110.366951 145.246536,110.068100 
z"/>
<path fill="#DDD4F7" opacity="1.000000" stroke="none" 
	d="
M80.593063,111.952225 
	C79.413963,111.704323 77.847336,111.855980 77.115868,111.146538 
	C69.987656,104.232994 62.999077,97.175484 55.510590,89.738434 
	C54.369434,88.884285 53.688416,88.450691 53.007401,88.017105 
	C53.497772,87.683090 53.988148,87.349075 55.016518,87.010223 
	C55.554516,87.005386 55.964657,87.112671 56.090538,87.418297 
	C63.772072,95.162621 71.327721,102.601318 79.026817,110.330872 
	C79.644531,111.065224 80.118797,111.508728 80.593063,111.952225 
z"/>
<path fill="#5600DA" opacity="1.000000" stroke="none" 
	d="
M140.947174,118.981789 
	C141.274826,118.522377 141.602478,118.062965 142.013641,117.329620 
	C142.402817,120.392311 142.884232,123.724220 142.974319,127.066673 
	C143.121628,132.531616 143.014145,138.003433 143.014145,143.892319 
	C133.857880,143.892319 124.972794,143.892319 115.952377,143.686951 
	C116.056168,143.353821 116.286842,143.212311 117.180054,143.016541 
	C124.621132,142.983658 131.392914,143.070267 138.159851,142.927155 
	C139.399002,142.900970 141.690216,141.931122 141.685745,141.412476 
	C141.621338,133.934006 141.247101,126.458221 140.947174,118.981789 
z"/>
<path fill="#DDD4F7" opacity="1.000000" stroke="none" 
	d="
M54.102074,85.953590 
	C53.901649,85.080849 53.701225,84.208107 54.234169,83.162880 
	C63.620640,82.950272 72.273743,82.910141 80.926842,82.870018 
	C80.940819,83.369499 80.954796,83.868988 80.490593,84.686676 
	C74.199890,84.998322 68.384895,84.889175 62.575901,85.029213 
	C59.745506,85.097458 56.926331,85.630791 54.102074,85.953590 
z"/>
<path fill="#CCBDF2" opacity="1.000000" stroke="none" 
	d="
M170.898895,84.526901 
	C162.505142,84.740105 154.249298,84.722839 145.177109,84.776443 
	C144.126984,84.893600 143.893219,84.939896 143.659439,84.986198 
	C143.491852,84.444885 143.324265,83.903572 143.418213,83.074860 
	C143.679749,82.787460 144.122742,82.746109 144.578156,82.819359 
	C149.863770,82.902382 154.697876,83.034790 159.522873,82.881104 
	C163.050842,82.768723 166.566818,82.280083 170.088150,81.959167 
	C170.404373,82.738251 170.720596,83.517342 170.898895,84.526901 
z"/>
<path fill="#DDD4F7" opacity="1.000000" stroke="none" 
	d="
M110.081505,84.905807 
	C101.193199,85.014099 92.558228,84.970863 83.453903,84.947571 
	C82.987068,84.521965 82.989586,84.076416 83.472107,83.306213 
	C92.561180,82.966400 101.170258,82.951256 109.779343,82.936111 
	C109.964500,83.542160 110.149666,84.148216 110.081505,84.905807 
z"/>
<path fill="#5600DA" opacity="1.000000" stroke="none" 
	d="
M80.958374,82.410767 
	C72.273743,82.910141 63.620640,82.950272 54.501167,82.990646 
	C54.475079,82.341232 54.915363,81.691574 55.634933,80.909973 
	C60.243862,81.186272 64.569168,81.881088 68.903999,81.946701 
	C80.001038,82.114685 80.051018,82.002434 79.977371,70.762108 
	C79.950455,66.653946 79.633919,62.547672 79.110153,58.172737 
	C79.277084,57.337563 79.783363,56.770191 80.989914,55.418045 
	C80.989914,64.901131 80.989914,73.426323 80.958374,82.410767 
z"/>
<path fill="#5600DA" opacity="1.000000" stroke="none" 
	d="
M54.334309,86.051010 
	C56.926331,85.630791 59.745506,85.097458 62.575901,85.029213 
	C68.384895,84.889175 74.199890,84.998322 80.473801,85.061111 
	C80.934364,93.784203 80.933533,102.451073 80.712013,111.536591 
	C80.491325,111.955231 80.542870,111.970955 80.567963,111.961594 
	C80.118797,111.508728 79.644531,111.065224 79.349068,110.053726 
	C79.686165,104.398277 79.983658,99.310516 79.972542,94.223442 
	C79.952080,84.858917 81.195541,85.966988 71.923462,86.055443 
	C66.600975,86.106209 61.284073,86.740860 55.964657,87.112671 
	C55.964657,87.112671 55.554516,87.005386 55.343391,86.986511 
	C54.943691,86.694557 54.755116,86.421486 54.334309,86.051010 
z"/>
<path fill="#753CDF" opacity="1.000000" stroke="none" 
	d="
M139.928040,110.288574 
	C140.127579,101.907738 140.327103,93.526901 140.941406,84.817673 
	C141.356186,84.489273 141.738037,84.481804 141.738037,84.481804 
	C141.726044,93.379623 141.714066,102.277443 141.350113,111.286789 
	C140.641449,111.028404 140.284744,110.658485 139.928040,110.288574 
z"/>
<path fill="#5600DA" opacity="1.000000" stroke="none" 
	d="
M109.784187,82.704582 
	C101.170258,82.951256 92.561180,82.966400 83.484642,82.972244 
	C83.187355,74.101219 83.357529,65.239517 83.769180,56.669395 
	C84.008377,64.078224 84.094704,71.197144 83.959816,78.311874 
	C83.906509,81.123482 84.955795,82.091988 87.726837,82.039108 
	C94.510536,81.909653 101.298454,82.001167 108.555145,81.998489 
	C109.355392,82.033379 109.609863,82.193321 109.784187,82.704582 
z"/>
<path fill="#753CDF" opacity="1.000000" stroke="none" 
	d="
M77.896118,141.460312 
	C78.182686,138.643463 78.785339,136.144897 78.996758,133.613663 
	C79.366104,129.191498 79.494850,124.749245 80.045738,120.130280 
	C80.367043,127.664230 80.367043,135.383331 80.367043,143.549210 
	C79.461655,142.855759 78.748848,142.309814 77.896118,141.460312 
z"/>
<path fill="#5600DA" opacity="1.000000" stroke="none" 
	d="
M114.064125,147.529037 
	C114.463341,151.582108 114.719475,156.085281 115.021744,160.585358 
	C115.248291,163.958008 115.534225,167.326660 116.187553,170.918671 
	C115.954552,171.826309 115.327713,172.512360 113.940849,174.030243 
	C113.940849,164.659073 113.940849,156.318436 114.064125,147.529037 
z"/>
<path fill="#E5DEF8" opacity="1.000000" stroke="none" 
	d="
M141.793610,84.059204 
	C141.738037,84.481804 141.356186,84.489273 141.165527,84.501633 
	C132.680161,84.445747 124.385452,84.377510 115.368759,84.210220 
	C114.449295,84.102486 114.251831,84.093803 114.054359,84.085114 
	C114.142609,83.492538 114.230865,82.899963 114.780556,82.521240 
	C123.798676,82.755096 132.355362,82.775085 141.148895,82.820740 
	C141.385742,82.846405 141.858139,82.784187 141.858139,82.784187 
	C141.855164,83.068336 141.852173,83.352478 141.793610,84.059204 
z"/>
<path fill="#5600DA" opacity="1.000000" stroke="none" 
	d="
M53.004658,88.484573 
	C53.688416,88.450691 54.369434,88.884285 55.225250,89.588211 
	C54.932461,91.482628 54.101883,93.097710 54.061382,94.732376 
	C53.902939,101.127052 53.994175,107.527908 53.984726,114.384712 
	C53.651863,112.371758 53.100975,109.905540 53.046467,107.428391 
	C52.911007,101.272263 53.001919,95.111153 53.004658,88.484573 
z"/>
<path fill="#5600DA" opacity="1.000000" stroke="none" 
	d="
M169.831238,81.790039 
	C166.566818,82.280083 163.050842,82.768723 159.522873,82.881104 
	C154.697876,83.034790 149.863770,82.902382 144.581421,82.638123 
	C144.129272,82.383644 144.189529,82.026077 144.189529,82.026077 
	C152.024124,81.762817 159.858704,81.499565 167.921021,80.847290 
	C168.623932,80.845810 169.099121,81.233360 169.831238,81.790039 
z"/>
<path fill="#5600DA" opacity="1.000000" stroke="none" 
	d="
M140.912033,82.795074 
	C132.355362,82.775085 123.798676,82.755096 115.027824,82.341461 
	C115.314880,81.556793 115.816109,81.165764 116.588135,80.604279 
	C118.451134,80.953613 120.031509,81.874512 121.637634,81.921860 
	C127.720726,82.101173 133.812164,81.997375 140.394379,82.203522 
	C140.888260,82.407562 140.912033,82.795082 140.912033,82.795074 
z"/>
<path fill="#EEE9FB" opacity="1.000000" stroke="none" 
	d="
M139.588867,110.082802 
	C140.284744,110.658485 140.641449,111.028404 141.139069,111.625397 
	C140.995667,111.907135 140.711334,111.961807 139.999603,112.093636 
	C139.572189,112.170792 139.198883,112.161446 139.019348,112.110214 
	C138.529755,111.557602 138.219711,111.056221 137.951523,110.259392 
	C138.412155,109.934975 138.830917,109.906006 139.588867,110.082802 
z"/>
<path fill="#EEE9FB" opacity="1.000000" stroke="none" 
	d="
M84.603600,116.092468 
	C84.470505,116.631767 84.093803,117.255188 83.395134,117.829460 
	C83.073158,117.780312 83.070442,117.379753 83.055298,117.180046 
	C83.480095,116.712418 83.920044,116.444496 84.603600,116.092468 
z"/>
<path fill="#9372E5" opacity="1.000000" stroke="none" 
	d="
M54.822342,116.162384 
	C54.989681,116.700806 54.863354,117.132652 54.741188,117.902237 
	C54.673122,117.511925 54.600899,116.783867 54.822342,116.162384 
z"/>
<path fill="#753CDF" opacity="1.000000" stroke="none" 
	d="
M80.450790,117.760193 
	C80.200829,117.721245 80.027023,117.375374 80.013336,116.979172 
	C80.291290,117.103653 80.409119,117.278465 80.450790,117.760193 
z"/>
<path fill="#CCBDF2" opacity="1.000000" stroke="none" 
	d="
M143.701553,111.059647 
	C143.978607,111.199242 144.015076,111.365227 144.062988,111.786247 
	C143.869949,111.722870 143.665451,111.404457 143.701553,111.059647 
z"/>
<path fill="#5600DA" opacity="1.000000" stroke="none" 
	d="
M144.905426,110.037224 
	C145.009583,110.366951 144.772629,110.665802 144.248306,111.002121 
	C143.898422,110.865654 143.835922,110.691719 143.826752,110.245789 
	C144.108170,109.984650 144.336258,109.995499 144.905426,110.037224 
z"/>
<path fill="#7E4CE1" opacity="1.000000" stroke="none" 
	d="
M144.282654,56.455975 
	C144.309937,56.723877 144.142822,56.819576 143.696014,56.987343 
	C143.640305,56.800869 143.864288,56.542320 144.282654,56.455975 
z"/>
<path fill="#7E4CE1" opacity="1.000000" stroke="none" 
	d="
M141.148895,82.820740 
	C140.912033,82.795082 140.888260,82.407562 140.851196,82.216896 
	C140.814117,82.026230 141.180099,81.954826 141.366150,81.944366 
	C141.552216,81.933914 141.799866,82.325195 141.829010,82.554688 
	C141.858139,82.784187 141.385742,82.846405 141.148895,82.820740 
z"/>
<path fill="#7E4CE1" opacity="1.000000" stroke="none" 
	d="
M144.003494,81.989960 
	C144.189529,82.026077 144.129272,82.383644 144.126007,82.564880 
	C144.122742,82.746109 143.679749,82.787460 143.457626,82.777840 
	C143.235504,82.768219 143.217819,82.322983 143.328339,82.129486 
	C143.438858,81.935982 143.817459,81.953835 144.003494,81.989960 
z"/>
<path fill="#9372E5" opacity="1.000000" stroke="none" 
	d="
M114.109985,84.333710 
	C114.251831,84.093803 114.449295,84.102486 114.913528,84.241615 
	C115.180283,84.372063 115.196907,84.678139 115.122231,84.811874 
	C114.753571,84.824509 114.459587,84.703407 114.109985,84.333710 
z"/>
<path fill="#5600DA" opacity="1.000000" stroke="none" 
	d="
M143.678711,85.257797 
	C143.893219,84.939896 144.126984,84.893600 144.718475,84.856293 
	C144.849579,85.173958 144.622971,85.482643 144.135223,85.918015 
	C143.815384,85.872932 143.756683,85.701164 143.678711,85.257797 
z"/>
<path fill="#7E4CE1" opacity="1.000000" stroke="none" 
	d="
M141.630737,56.827194 
	C141.370819,57.014263 141.190002,56.964893 140.770096,56.764359 
	C140.923935,56.605717 141.316879,56.598236 141.630737,56.827194 
z"/>
<path fill="#EEE9FB" opacity="1.000000" stroke="none" 
	d="
M118.013306,88.929947 
	C118.527206,89.438820 119.041107,89.947701 119.295395,90.729622 
	C118.725220,90.944099 118.414650,90.885536 118.031509,90.232475 
	C117.977074,89.401962 117.995193,89.165955 118.013306,88.929947 
z"/>
<path fill="#EEE9FB" opacity="1.000000" stroke="none" 
	d="
M123.979019,96.273605 
	C124.435486,96.056763 124.886497,96.151695 125.187828,96.631081 
	C124.683281,96.872154 124.328430,96.728775 123.979019,96.273605 
z"/>
<path fill="#EEE9FB" opacity="1.000000" stroke="none" 
	d="
M136.974579,109.277069 
	C137.434555,109.057678 137.881760,109.153404 138.183502,109.630951 
	C137.679306,109.872574 137.320557,109.732384 136.974579,109.277069 
z"/>
<path fill="#EEE9FB" opacity="1.000000" stroke="none" 
	d="
M135.974609,108.277107 
	C136.437088,108.056633 136.886734,108.151268 137.187195,108.629257 
	C136.679260,108.872475 136.320511,108.732346 135.974609,108.277107 
z"/>
<path fill="#EEE9FB" opacity="1.000000" stroke="none" 
	d="
M122.979019,95.273605 
	C123.435486,95.056763 123.886513,95.151695 124.187836,95.631081 
	C123.683289,95.872154 123.328430,95.728767 122.979019,95.273605 
z"/>
<path fill="#FEFEFF" opacity="1.000000" stroke="none" 
	d="
M114.983139,87.262329 
	C115.418999,87.057228 115.876465,87.156326 116.187973,87.646500 
	C115.696251,87.880569 115.350494,87.723557 114.983139,87.262329 
z"/>
<path fill="#FEFEFF" opacity="1.000000" stroke="none" 
	d="
M115.980087,88.263550 
	C116.416840,88.058464 116.871101,88.159203 117.183800,88.648651 
	C116.694016,88.881363 116.345810,88.725365 115.980087,88.263550 
z"/>
<path fill="#FEFEFF" opacity="1.000000" stroke="none" 
	d="
M117.744598,88.729797 
	C117.995193,89.165955 117.977074,89.401962 117.930695,89.992142 
	C117.596924,90.088211 117.291397,89.830116 116.975845,89.268127 
	C117.135841,88.819366 117.305870,88.674500 117.744598,88.729797 
z"/>
<path fill="#EEE9FB" opacity="1.000000" stroke="none" 
	d="
M118.978302,91.274048 
	C119.435547,91.056740 119.886520,91.151665 120.187836,91.631012 
	C119.682785,91.872375 119.327408,91.729324 118.978302,91.274048 
z"/>
<path fill="#EEE9FB" opacity="1.000000" stroke="none" 
	d="
M119.978287,92.274055 
	C120.435555,92.056740 120.886528,92.151657 121.187836,92.630997 
	C120.682777,92.872375 120.327393,92.729340 119.978287,92.274055 
z"/>
<path fill="#EEE9FB" opacity="1.000000" stroke="none" 
	d="
M120.978287,93.274055 
	C121.435555,93.056740 121.886528,93.151657 122.187836,93.630997 
	C121.682777,93.872375 121.327393,93.729332 120.978287,93.274055 
z"/>
<path fill="#EEE9FB" opacity="1.000000" stroke="none" 
	d="
M121.979019,94.273605 
	C122.435486,94.056763 122.886513,94.151695 123.187836,94.631081 
	C122.683289,94.872154 122.328430,94.728767 121.979019,94.273605 
z"/>
<path fill="#EEE9FB" opacity="1.000000" stroke="none" 
	d="
M134.974655,107.277054 
	C135.434906,107.057579 135.882401,107.153198 136.183960,107.630699 
	C135.679321,107.872437 135.320618,107.732300 134.974655,107.277054 
z"/>
<path fill="#EEE9FB" opacity="1.000000" stroke="none" 
	d="
M124.979019,97.273605 
	C125.435486,97.056763 125.886497,97.151695 126.187828,97.631081 
	C125.683289,97.872154 125.328430,97.728767 124.979019,97.273605 
z"/>
<path fill="#EEE9FB" opacity="1.000000" stroke="none" 
	d="
M125.979004,98.273575 
	C126.433212,98.057732 126.881973,98.153679 127.184464,98.632591 
	C126.683319,98.872162 126.328445,98.728767 125.979004,98.273575 
z"/>
<path fill="#EEE9FB" opacity="1.000000" stroke="none" 
	d="
M126.979019,99.273605 
	C127.435463,99.056778 127.886452,99.151718 128.187805,99.631104 
	C127.683289,99.872154 127.328438,99.728767 126.979019,99.273605 
z"/>
<path fill="#EEE9FB" opacity="1.000000" stroke="none" 
	d="
M127.979012,100.273582 
	C128.433212,100.057732 128.881989,100.153679 129.184479,100.632584 
	C128.683319,100.872162 128.328445,100.728767 127.979012,100.273582 
z"/>
<path fill="#EEE9FB" opacity="1.000000" stroke="none" 
	d="
M128.979004,101.273628 
	C129.435471,101.056740 129.886475,101.151665 130.187805,101.631035 
	C129.683289,101.872131 129.328415,101.728783 128.979004,101.273628 
z"/>
<path fill="#EEE9FB" opacity="1.000000" stroke="none" 
	d="
M129.978943,102.273705 
	C130.435486,102.056747 130.886459,102.151657 131.187805,102.630997 
	C130.683228,102.872147 130.328308,102.728859 129.978943,102.273705 
z"/>
<path fill="#EEE9FB" opacity="1.000000" stroke="none" 
	d="
M130.978851,103.273766 
	C131.435516,103.056740 131.886490,103.151642 132.187790,103.630966 
	C131.683136,103.872154 131.328156,103.728920 130.978851,103.273766 
z"/>
<path fill="#EEE9FB" opacity="1.000000" stroke="none" 
	d="
M131.978607,104.275375 
	C132.434830,104.055984 132.885040,104.150116 133.186615,104.628494 
	C132.682861,104.871468 132.327713,104.730194 131.978607,104.275375 
z"/>
<path fill="#EEE9FB" opacity="1.000000" stroke="none" 
	d="
M132.974823,105.276932 
	C133.434845,105.057571 133.882401,105.153198 134.184006,105.630753 
	C133.679489,105.872414 133.320923,105.732162 132.974823,105.276932 
z"/>
<path fill="#EEE9FB" opacity="1.000000" stroke="none" 
	d="
M133.974762,106.277023 
	C134.437134,106.056602 134.886902,106.151207 135.187332,106.629204 
	C134.679367,106.872406 134.320770,106.732224 133.974762,106.277023 
z"/>
<path fill="#6323DC" opacity="1.000000" stroke="none" 
	d="
M140.637344,119.103615 
	C141.247101,126.458221 141.621338,133.934006 141.685745,141.412476 
	C141.690216,141.931122 139.399002,142.900970 138.159851,142.927155 
	C131.392914,143.070267 124.621132,142.983658 117.375816,142.962738 
	C124.709579,135.041458 132.518539,127.133453 140.637344,119.103615 
z"/>
<path fill="#6221DC" opacity="1.000000" stroke="none" 
	d="
M56.090538,87.418297 
	C61.284073,86.740860 66.600975,86.106209 71.923462,86.055443 
	C81.195541,85.966988 79.952080,84.858917 79.972542,94.223442 
	C79.983658,99.310516 79.686165,104.398277 79.205620,109.762878 
	C71.327721,102.601318 63.772072,95.162621 56.090538,87.418297 
z"/>
</svg>